<svg width="451" height="645" viewBox="0 0 451 645" fill="none" xmlns="http://www.w3.org/2000/svg">
<path fill-rule="evenodd" clip-rule="evenodd" d="M364.825 291.938C441.977 369.091 441.977 494.179 364.825 571.331C287.673 648.484 162.584 648.484 85.4321 571.331C8.2798 494.179 8.2798 369.091 85.4321 291.938C162.584 214.786 287.673 214.786 364.825 291.938ZM195.464 257.242C203.474 255.888 209.651 255.258 218.718 254.869C225.531 254.577 239.15 255.024 243.994 255.7C244.593 255.783 246.308 255.992 247.805 256.164C251.72 256.614 259.102 257.852 262.737 258.669C263.122 258.755 264.347 259.029 265.459 259.278C269.1 260.092 278.17 262.566 279.147 263.011C279.318 263.09 279.853 263.264 280.336 263.399C281.988 263.861 289.88 266.703 291.147 267.293C291.417 267.418 291.68 267.521 291.732 267.521C291.827 267.521 295.03 268.845 296.335 269.424C301.057 271.518 307.033 274.426 310.178 276.16C311.076 276.655 312.056 277.193 312.356 277.356C312.655 277.518 313.355 277.922 313.911 278.254C314.467 278.586 315.307 279.074 315.778 279.34C316.248 279.606 316.996 280.048 317.44 280.321C317.883 280.596 318.653 281.06 319.151 281.354C319.648 281.648 320.09 281.935 320.133 281.992C320.176 282.049 320.386 282.187 320.6 282.299C320.981 282.499 326.282 285.972 326.588 286.222C326.674 286.292 327.584 286.947 328.61 287.677C329.51 288.317 329.99 288.658 330.465 289.005C331.103 289.471 331.732 289.948 333.354 291.177C335.891 293.098 337.873 294.696 340.665 297.073C350.648 305.569 360.505 316.021 367.807 325.853C368.235 326.429 368.739 327.102 368.926 327.347C369.621 328.258 370.331 329.246 371.651 331.138C372.703 332.647 375.765 337.269 375.971 337.661C376.081 337.87 376.235 338.115 376.312 338.206C376.446 338.364 377.576 340.177 378.224 341.274C381.268 346.43 382.598 348.868 385.001 353.692C386.718 357.138 387.616 359.088 389.299 363.025C391.113 367.269 392.163 369.996 393.671 374.38C394.671 377.286 394.999 378.289 396.039 381.613C397.731 387.016 400.142 397.452 401.09 403.467C401.298 404.793 401.547 406.333 401.642 406.889C401.857 408.146 402.509 413.678 402.798 416.688C403.684 425.924 403.651 441.433 402.728 449.975C402.343 453.539 401.777 458.24 401.633 459.074C401.544 459.587 401.304 461.057 401.099 462.34C400.073 468.764 397.865 478.278 395.992 484.35C395.06 487.375 394.314 489.701 394.174 490.027C394.1 490.198 393.886 490.828 393.698 491.427C393.511 492.026 393.269 492.726 393.161 492.983C393.054 493.239 392.843 493.799 392.693 494.227C392.194 495.647 390.428 500.203 390.04 501.071C389.925 501.328 389.384 502.588 388.837 503.871C387.083 507.987 383.072 516.167 381.4 519.036C381.225 519.336 380.522 520.561 379.837 521.758C379.152 522.956 378.284 524.426 377.909 525.025C377.533 525.624 377.176 526.219 377.116 526.347C376.772 527.073 372.307 533.786 370.498 536.297C369.617 537.519 368.695 538.808 368.448 539.161C368.201 539.513 367.956 539.837 367.904 539.879C367.851 539.922 367.388 540.517 366.876 541.202C366.364 541.886 365.908 542.481 365.863 542.524C365.818 542.566 365.432 543.047 365.005 543.591C362.91 546.266 359.226 550.594 356.845 553.177C354.333 555.901 347.897 562.334 345.72 564.297C345.121 564.837 344.241 565.636 343.763 566.072C343.286 566.509 342.525 567.181 342.073 567.566C341.62 567.951 341.094 568.406 340.903 568.577C340.576 568.87 338.848 570.293 336.465 572.233C334.811 573.579 331.307 576.229 328.766 578.057C326.264 579.856 319.982 584.008 317.932 585.217C317.645 585.386 317.096 585.714 316.711 585.947C313.06 588.153 308.141 590.816 303.801 592.936C301.152 594.23 296.258 596.498 296.113 596.498C296.068 596.498 295.592 596.697 295.055 596.94C294.519 597.183 293.239 597.714 292.213 598.12C291.186 598.526 290.136 598.947 289.88 599.056C289.623 599.165 288.398 599.617 287.158 600.061C285.917 600.504 284.552 600.998 284.124 601.159C282.464 601.784 279.526 602.726 274.947 604.103C271.323 605.193 264.262 606.882 259.548 607.788C255.033 608.655 254.121 608.812 251.448 609.183C245.767 609.972 242.077 610.354 235.439 610.839C232.405 611.061 218.05 611.06 215.14 610.837C209.256 610.387 203.014 609.787 201.841 609.559C201.414 609.475 199.785 609.232 198.222 609.017C196.659 608.803 195.084 608.557 194.722 608.472C194.36 608.386 192.944 608.11 191.575 607.858C185.802 606.794 176.6 604.534 172.91 603.273C172.568 603.156 171.028 602.66 169.488 602.171C167.948 601.682 166.622 601.22 166.54 601.145C166.459 601.07 166.297 601.008 166.179 601.008C165.485 601.008 155.859 597.156 150.745 594.831C149.4 594.219 142.276 590.694 142.19 590.596C142.147 590.549 141.762 590.336 141.334 590.125C140.543 589.733 137.983 588.313 136.435 587.407C133.795 585.862 132.933 585.346 131.413 584.399C127.966 582.253 121.557 577.954 120.18 576.866C120.095 576.798 119.29 576.187 118.392 575.508C116.281 573.912 115.755 573.5 113.414 571.605C110.664 569.379 110.316 569.093 109.825 568.655C109.585 568.441 109.019 567.951 108.567 567.566C108.115 567.181 107.393 566.549 106.963 566.161C101.025 560.803 96.2557 555.986 90.7982 549.834C89.3078 548.154 85.0947 543.02 84.1392 541.719C83.993 541.52 83.1531 540.399 82.2727 539.227C79.5149 535.558 74.839 528.735 74.839 528.38C74.839 528.289 74.782 528.214 74.7124 528.214C74.6427 528.214 74.4416 527.951 74.2655 527.63C74.0896 527.31 73.3662 526.102 72.6581 524.947C71.9501 523.792 70.7496 521.727 69.9906 520.359C69.2313 518.99 68.5435 517.765 68.4619 517.637C68.1096 517.083 65.1707 511.259 64.1444 509.082C62.6286 505.865 61.8109 504.038 61.4291 503.015C61.2535 502.545 61.0544 502.089 60.9865 502.002C60.9187 501.916 60.709 501.426 60.5207 500.914C60.3322 500.401 60.0481 499.691 59.8895 499.335C59.7307 498.98 59.4213 498.21 59.2018 497.624C58.9823 497.039 58.5912 496 58.3325 495.316C57.629 493.455 55.6031 487.57 55.1466 486.061C53.8603 481.81 52.5741 477.066 51.878 474.006C50.9858 470.084 50.3796 467.169 49.9533 464.751C49.7044 463.34 49.4286 461.8 49.3406 461.329C48.8188 458.545 47.8915 450.33 47.6287 446.164C47.5315 444.624 47.3845 442.59 47.302 441.645C47.1085 439.426 47.1071 426.481 47.3002 424.24C47.3817 423.295 47.5265 421.261 47.6218 419.721C47.8253 416.442 48.2281 412.498 48.782 408.366C49.16 405.548 49.2918 404.746 50.174 399.889C51.0588 395.02 52.2614 389.918 54.0612 383.401C54.5321 381.696 56.4177 375.734 56.6683 375.158C56.7613 374.944 57.0348 374.174 57.276 373.447C58.2332 370.56 60.8714 363.852 62.0783 361.236C62.2362 360.894 62.9267 359.389 63.6129 357.892C65.3578 354.085 68.7097 347.544 70.1855 345.067C70.3408 344.806 70.6815 344.225 70.9425 343.776C71.2035 343.327 71.6308 342.592 71.8921 342.143C72.1533 341.694 72.675 340.837 73.0514 340.238C73.4276 339.639 73.8513 338.945 73.9929 338.697C74.3377 338.091 77.6717 332.948 77.7838 332.849C77.8324 332.807 78.3239 332.107 78.8759 331.294C79.4279 330.481 79.9362 329.746 80.0055 329.661C80.0747 329.575 80.4841 329.015 80.9154 328.416C81.3466 327.817 81.8882 327.091 82.1189 326.801C82.3497 326.511 82.6038 326.161 82.6836 326.023C82.8356 325.76 84.7245 323.315 85.408 322.497C85.6264 322.236 85.9799 321.784 86.1938 321.493C87.0845 320.281 91.3374 315.324 93.7989 312.629C96.0922 310.117 101.978 304.21 104.26 302.129C105.386 301.103 106.498 300.088 106.73 299.874C106.962 299.66 107.389 299.271 107.678 299.01C108.288 298.458 112.175 295.175 112.96 294.55C115.11 292.834 116.264 291.938 118.236 290.449C119.476 289.512 120.694 288.607 120.941 288.438C121.188 288.269 121.58 287.99 121.812 287.819C122.044 287.648 122.646 287.228 123.151 286.886C123.656 286.544 124.104 286.222 124.147 286.171C124.189 286.119 124.534 285.883 124.912 285.646C125.29 285.409 125.675 285.148 125.768 285.066C125.945 284.91 130.987 281.624 131.725 281.185C138.924 276.899 144.49 273.898 149.539 271.58C150.117 271.315 151.027 270.895 151.561 270.647C153.22 269.876 154.366 269.365 155.256 268.999C158.705 267.579 160.575 266.823 161.244 266.577C161.672 266.419 162.792 266.005 163.733 265.655C164.674 265.306 166.739 264.595 168.321 264.076C169.904 263.557 171.339 263.072 171.51 262.998C172.365 262.628 178.185 261 182.009 260.061C188.105 258.563 190.003 258.165 195.464 257.242ZM237.694 262.85C236.711 262.77 234.051 262.634 231.784 262.547C222.307 262.183 213.565 262.57 203.708 263.789C193.455 265.057 183.063 267.377 172.599 270.734C171.401 271.118 170.281 271.492 170.11 271.564C169.939 271.637 169.274 271.873 168.633 272.089C166.609 272.771 162.57 274.28 161.711 274.674C161.54 274.753 160.945 275 160.389 275.223C159.833 275.446 159.081 275.764 158.718 275.93C158.356 276.096 158.025 276.231 157.983 276.231C157.941 276.231 157.384 276.476 156.744 276.775C156.104 277.075 155.545 277.32 155.5 277.32C155.242 277.32 146.646 281.549 144.756 282.605C144.158 282.94 143.283 283.409 142.812 283.648C142.342 283.887 141.922 284.126 141.879 284.179C141.836 284.232 141.556 284.4 141.257 284.552C140.478 284.946 137.121 286.909 136.201 287.508C135.774 287.786 134.899 288.342 134.257 288.744C132 290.155 127.76 292.987 126.48 293.937C126.095 294.223 125.605 294.585 125.391 294.741C123.893 295.835 119.855 298.875 119.791 298.956C119.749 299.01 119.259 299.417 118.703 299.858C118.147 300.3 117.552 300.78 117.381 300.924C117.209 301.068 116.684 301.5 116.214 301.883C115.213 302.697 110.642 306.711 109.296 307.957C107.213 309.887 101.867 315.253 100.193 317.096C99.209 318.179 98.1941 319.287 97.9374 319.559C97.4616 320.063 97.3258 320.221 94.6491 323.385C92.4266 326.012 89.3929 329.81 89.0602 330.382C88.9809 330.518 88.7287 330.867 88.5001 331.156C86.6195 333.538 81.5454 340.965 80.3735 343.052C80.2338 343.301 79.8299 343.959 79.4757 344.515C78.86 345.482 76.409 349.714 75.4222 351.515C74.4519 353.285 71.3592 359.435 70.6118 361.081C70.1844 362.022 69.6308 363.229 69.3815 363.764C69.1323 364.299 68.9283 364.785 68.9283 364.843C68.9283 364.901 68.7916 365.233 68.6244 365.581C68.0568 366.762 66.8042 369.873 65.8016 372.591C65.5491 373.275 65.2779 373.975 65.1987 374.146C64.6803 375.268 62.2353 382.819 61.2454 386.357C58.5624 395.945 57.1801 403.077 55.7133 414.899C54.8635 421.75 54.5975 433.869 55.0972 442.975C55.7665 455.171 58.0572 468.534 61.5098 480.384C62.5258 483.871 63.0264 485.516 63.1665 485.828C63.2433 485.999 63.456 486.629 63.639 487.228C63.822 487.826 64.0699 488.561 64.1898 488.861C64.3098 489.16 64.7324 490.315 65.1287 491.427C65.9971 493.864 67.1198 496.783 67.5358 497.686C67.7028 498.049 67.8395 498.381 67.8395 498.425C67.8395 498.535 69.651 502.658 70.6767 504.882C71.6165 506.919 73.9335 511.512 75.3371 514.119C78.2536 519.536 82.0316 525.61 85.9426 531.169C87.1523 532.888 88.9491 535.348 89.3507 535.835C89.4567 535.964 89.752 536.347 90.0073 536.688C90.2625 537.028 90.5561 537.413 90.6595 537.543C90.8525 537.785 92.8273 540.248 93.7111 541.349C97.2495 545.755 104.264 553.168 109.432 557.963C112.42 560.734 117.654 565.217 120.011 567.022C120.346 567.279 120.976 567.763 121.411 568.098C121.846 568.433 122.657 569.051 123.213 569.47C123.77 569.89 124.33 570.318 124.458 570.421C124.797 570.693 127.655 572.711 128.323 573.151C128.635 573.356 128.926 573.568 128.969 573.622C129.011 573.676 129.746 574.17 130.602 574.72C131.457 575.269 132.227 575.778 132.313 575.851C132.398 575.924 133.483 576.608 134.724 577.372C135.964 578.135 137.049 578.816 137.135 578.885C137.22 578.954 137.605 579.189 137.99 579.406C138.375 579.624 139.355 580.189 140.168 580.662C142.951 582.281 147.518 584.7 150.85 586.321C152.684 587.213 154.215 587.943 154.253 587.943C154.291 587.943 154.759 588.145 155.294 588.393C156.898 589.135 159.139 590.12 159.224 590.12C159.268 590.12 159.6 590.257 159.963 590.423C160.325 590.59 161.637 591.12 162.877 591.602C164.118 592.084 165.553 592.643 166.066 592.844C167.531 593.416 174.912 595.862 176.721 596.375C183.684 598.347 187.704 599.317 193.286 600.373C201.434 601.915 205.812 602.443 216.54 603.178C222.006 603.552 229.857 603.496 236.528 603.033C239.81 602.806 245.528 602.269 246.638 602.084C247.151 601.999 248.796 601.757 250.293 601.548C257.605 600.525 265.378 598.826 273.625 596.448C278.58 595.02 287.654 591.805 290.813 590.358C291.241 590.162 291.755 589.952 291.955 589.891C292.155 589.829 292.729 589.576 293.229 589.327C293.73 589.079 294.191 588.876 294.255 588.876C294.318 588.876 294.655 588.742 295.002 588.577C295.35 588.413 296.265 587.986 297.035 587.628C297.805 587.27 299.659 586.375 301.157 585.638C303.495 584.488 305.008 583.683 310.645 580.588C311.115 580.329 311.605 580.034 311.734 579.932C311.862 579.829 312.282 579.577 312.667 579.372C313.052 579.167 313.402 578.96 313.445 578.914C313.487 578.867 313.872 578.627 314.3 578.381C316.334 577.21 324.873 571.49 325.966 570.565C326.052 570.493 326.786 569.94 327.599 569.337C328.412 568.734 329.505 567.897 330.027 567.476C330.55 567.055 331.209 566.536 331.491 566.322C332.43 565.611 333.682 564.561 337.228 561.507C340.645 558.565 348.746 550.68 351.242 547.868C351.884 547.145 352.654 546.284 352.953 545.956C353.47 545.389 354.233 544.51 355.259 543.301C355.513 543.002 356 542.43 356.34 542.031C356.681 541.631 357.508 540.616 358.18 539.775C358.851 538.934 359.438 538.211 359.484 538.168C359.53 538.126 359.987 537.531 360.499 536.846C361.011 536.162 361.473 535.567 361.526 535.524C361.579 535.481 361.824 535.158 362.071 534.806C362.317 534.453 363.368 532.983 364.405 531.539C365.442 530.095 366.629 528.389 367.042 527.747C367.455 527.105 367.851 526.51 367.922 526.425C368.166 526.13 369.441 524.162 369.441 524.079C369.441 524.034 369.703 523.597 370.024 523.107C370.345 522.618 370.689 522.079 370.789 521.91C370.889 521.741 371.492 520.728 372.13 519.659C376.715 511.965 381.118 502.947 384.166 495.005C387.085 487.4 388.918 481.616 390.747 474.24C392.433 467.442 392.864 465.239 394.173 456.741C394.611 453.897 395.371 446.292 395.594 442.508C395.834 438.444 395.833 427.173 395.593 423.221C395.404 420.121 394.816 413.984 394.401 410.777C393.922 407.079 392.382 398.063 392.05 397.02C391.994 396.844 391.721 395.686 391.442 394.445C390.665 390.989 389.832 387.841 388.499 383.324C387.835 381.072 385.081 373 384.678 372.124C384.599 371.953 384.317 371.253 384.05 370.569C382.928 367.69 382.634 366.959 382.359 366.363C382.2 366.018 381.754 365.003 381.369 364.108C380.112 361.188 377.473 355.745 376.017 353.07C372.621 346.831 371.196 344.425 367.772 339.156C367.325 338.468 366.859 337.765 366.736 337.593C366.614 337.422 366.111 336.687 365.619 335.96C365.127 335.233 364.579 334.45 364.4 334.221C364.221 333.992 363.374 332.849 362.519 331.682C359.284 327.269 355.482 322.642 351.339 318.079C346.809 313.089 338.363 304.998 334.324 301.779C333.919 301.456 333.448 301.076 333.277 300.933C331.549 299.495 326.998 295.98 325.414 294.861C325.204 294.712 324.368 294.114 323.555 293.531C322.742 292.948 320.852 291.665 319.355 290.68C315.831 288.36 314.362 287.439 312.2 286.193C311.559 285.823 310.844 285.39 310.612 285.231C310.38 285.072 310.162 284.942 310.127 284.942C310.091 284.942 309.374 284.552 308.533 284.076C305.047 282.101 301.406 280.236 297.579 278.463C293.204 276.437 293.093 276.387 293.004 276.387C292.959 276.387 292.552 276.215 292.1 276.005C291.649 275.795 290.195 275.196 288.869 274.673C287.543 274.15 286.248 273.63 285.991 273.518C285.734 273.405 285.139 273.191 284.669 273.042C284.198 272.894 283.603 272.68 283.347 272.567C282.737 272.3 276.745 270.303 274.947 269.767C266.893 267.369 258.952 265.557 251.771 264.479C250.317 264.261 248.672 264.014 248.116 263.93C246.896 263.746 240.185 263.051 237.694 262.85ZM229.132 284.413C229.914 282.804 230.702 281.886 231.697 281.422C233.318 280.668 235.411 281.025 236.57 282.253C237.299 283.027 237.624 283.847 238.154 286.251C239.182 290.923 241.109 297.345 242.871 301.974C243.95 304.809 244.746 306.834 245.022 307.448C245.184 307.807 245.316 308.135 245.316 308.178C245.316 308.27 247.233 312.685 248.227 314.884C250.608 320.149 255.646 330.02 258.23 334.483C258.428 334.825 258.846 335.56 259.16 336.116C260.26 338.066 260.536 338.543 261.729 340.549C262.39 341.661 263.1 342.87 263.307 343.235C263.514 343.6 263.838 344.137 264.027 344.429C264.216 344.72 264.65 345.425 264.992 345.995C265.63 347.056 265.912 347.517 267.092 349.415C268.198 351.194 268.695 351.976 269.762 353.615C270.319 354.47 271.253 355.905 271.837 356.803C273.499 359.361 275.349 362.132 276.977 364.503C277.8 365.7 278.729 367.065 279.043 367.536C279.356 368.006 279.655 368.426 279.707 368.469C279.758 368.512 279.983 368.827 280.207 369.169C280.431 369.511 280.839 370.106 281.115 370.491C281.392 370.876 281.867 371.55 282.171 371.99C282.476 372.429 283.214 373.463 283.813 374.289C284.412 375.115 285.147 376.129 285.447 376.544C286.073 377.411 288.138 380.23 288.713 381.004C288.927 381.291 289.627 382.23 290.268 383.09C290.91 383.949 291.575 384.845 291.746 385.08C291.917 385.315 292.652 386.272 293.379 387.206C294.107 388.141 294.841 389.095 295.013 389.326C295.636 390.167 297.159 392.135 298.217 393.468C298.813 394.219 299.491 395.075 299.723 395.37C299.956 395.665 300.635 396.514 301.234 397.257C301.833 397.999 302.533 398.874 302.79 399.202C303.046 399.529 303.501 400.084 303.801 400.436C304.1 400.787 304.59 401.381 304.89 401.756C305.722 402.796 306.576 403.813 306.981 404.244C307.931 405.257 311.458 412.166 313.174 416.377C314.267 419.057 314.535 419.754 315.06 421.277C317.305 427.784 318.482 432.713 319.668 440.564C319.959 442.491 320.288 447.062 320.384 450.519C320.518 455.333 320.071 463.332 319.507 466.229C319.424 466.657 319.18 468.057 318.964 469.34C318.343 473.037 317.19 477.883 316.171 481.083C315.304 483.805 313.822 487.925 313.286 489.1C313.117 489.472 312.978 489.819 312.978 489.871C312.978 490.031 310.549 495.257 309.977 496.327C309.292 497.608 308.29 499.394 307.558 500.637C307.245 501.168 306.733 502.043 306.42 502.581C305.432 504.277 302.894 507.991 301.256 510.137C300.389 511.274 299.482 512.464 299.242 512.782C297.521 515.057 291.984 520.938 289.1 523.554C288.095 524.466 285.182 526.939 284.466 527.489C284.226 527.674 283.806 528.007 283.532 528.229C282.672 528.928 280.133 530.769 278.758 531.69C278.031 532.176 277.269 532.696 277.064 532.844C276.663 533.135 276.655 533.14 273.592 534.971C270.63 536.742 263.999 540.07 262.092 540.743C261.734 540.869 261.366 541.031 261.273 541.103C261.18 541.174 260.544 541.43 259.859 541.671C259.175 541.912 258.545 542.156 258.46 542.213C258.251 542.351 254.95 543.472 253.015 544.062C244.936 546.526 237.045 547.854 228.362 548.211C226.228 548.299 225.625 548.273 224.784 548.058C223.052 547.615 221.78 546.585 220.926 544.935C220.39 543.899 220.362 543.769 220.356 542.29C220.352 540.86 220.39 540.654 220.839 539.724C221.442 538.474 222.024 537.902 224.395 536.231C227.088 534.333 228.413 533.331 230.228 531.82C230.513 531.582 230.863 531.291 231.194 531.016L232.013 530.335C234.207 528.51 237.701 524.903 240.548 521.525C241.633 520.237 244.817 515.721 245.538 514.448C245.684 514.191 246.073 513.526 246.403 512.97C246.903 512.126 249.311 507.37 250.064 505.737C250.981 503.749 252.236 500.012 252.786 497.632C252.962 496.871 253.204 495.829 253.326 495.316C253.678 493.826 254.015 490.887 254.205 487.632C254.456 483.35 254.035 476.188 253.332 472.762C253.209 472.163 252.996 471.043 252.858 470.273C251.306 461.574 247.012 450.396 240.69 438.602C239.548 436.47 236.625 431.133 236.37 430.713C236.283 430.57 235.863 429.824 235.437 429.054C235.01 428.284 234.591 427.541 234.506 427.404C234.42 427.266 234.123 426.741 233.846 426.237C233.188 425.042 232.734 424.238 232.23 423.376C230.341 420.143 225.606 410.992 223.819 407.122C221.638 402.396 218.518 393.074 216.894 386.435C215.903 382.382 215.168 378.753 214.234 373.291C214.066 372.307 213.848 370.417 213.751 369.091C213.653 367.765 213.506 366.12 213.423 365.436C212.818 360.411 212.822 344.849 213.43 339.693C213.516 338.966 213.694 337.111 213.827 335.571C213.959 334.032 214.097 332.667 214.134 332.538C214.171 332.41 214.48 330.73 214.822 328.805C215.61 324.363 216.097 321.938 216.712 319.395C217.789 314.933 219.338 309.196 219.651 308.507C219.728 308.336 219.942 307.671 220.126 307.029C220.541 305.577 221.633 302.236 221.829 301.818C221.909 301.647 222.183 300.912 222.438 300.185C223.076 298.36 223.674 296.745 223.848 296.374C223.929 296.203 224.268 295.363 224.602 294.508C224.935 293.652 225.736 291.867 226.38 290.541C227.583 288.063 228.517 285.986 228.517 285.789C228.517 285.727 228.794 285.108 229.132 284.413ZM175.321 306.685C177.435 305.896 178.214 305.639 178.976 305.479C180.241 305.214 181.739 305.628 182.728 306.515C184.308 307.933 184.436 310.886 182.987 312.489C182.309 313.24 181.923 313.45 179.991 314.119C177.404 315.015 174.101 316.293 172.562 316.995C172.199 317.16 171.863 317.295 171.815 317.295C171.645 317.295 166.502 319.672 164.511 320.671C161.219 322.323 157.626 324.318 153.7 326.673C150.413 328.645 143.245 333.7 140.545 335.95C140.282 336.17 139.794 336.559 139.46 336.816C136.06 339.435 128.233 346.846 124.67 350.821C123.366 352.276 120.518 355.587 119.915 356.349C117.969 358.808 117.41 359.525 116.598 360.598C116.087 361.274 115.42 362.184 115.116 362.62C114.812 363.057 114.338 363.729 114.064 364.114C113.573 364.804 111.212 368.343 110.535 369.402C110.344 369.702 109.942 370.332 109.641 370.802C107.756 373.748 104.068 380.579 102.251 384.49C101.399 386.323 100.504 388.341 100.504 388.427C100.504 388.474 100.303 388.955 100.057 389.496C99.8114 390.036 99.4845 390.829 99.3305 391.256C99.1765 391.684 99.0029 392.104 98.9449 392.19C98.8869 392.275 98.6422 392.905 98.4011 393.59C98.1599 394.274 97.9138 394.904 97.8541 394.989C97.5084 395.484 94.8388 403.984 93.8969 407.589C92.123 414.376 90.5996 423.114 90.0185 429.831C89.3657 437.38 89.3649 446.523 90.0165 454.087C90.582 460.652 92.1404 469.65 93.8213 476.056C94.5842 478.964 96.4479 485.08 96.8464 485.983C96.9597 486.24 97.121 486.695 97.205 486.994C97.3677 487.574 98.7027 491.216 98.944 491.738C99.0231 491.909 99.4823 492.994 99.9643 494.149C102.41 500.009 104.753 504.677 108.143 510.448C108.86 511.67 109.584 512.895 109.75 513.17C110.237 513.977 113.174 518.403 113.953 519.503C114.346 520.059 114.786 520.689 114.931 520.903C115.604 521.901 119.033 526.351 120.288 527.856C125.633 534.264 131.494 540.239 137.138 545.034C139.087 546.69 141.77 548.865 142.292 549.212C142.485 549.34 143.433 550.041 144.399 550.77C145.565 551.649 146.163 552.1 146.773 552.535C147.429 553.003 148.098 553.452 149.501 554.394C152.157 556.179 153.842 557.273 154.556 557.674C154.812 557.819 155.477 558.213 156.033 558.551C156.589 558.889 157.359 559.343 157.744 559.561L159.378 560.483C160.553 561.146 164.01 562.951 165.444 563.65C167.541 564.673 169.73 565.7 169.812 565.7C169.859 565.7 170.259 565.87 170.703 566.078C171.588 566.493 174.458 567.707 175.321 568.031C175.62 568.143 176.075 568.329 176.332 568.443C176.589 568.557 177.289 568.821 177.887 569.03C183.556 571.008 184.035 571.164 187.531 572.183C189.981 572.897 194.346 574 196.008 574.326C196.736 574.469 197.54 574.649 197.797 574.728C198.421 574.918 203.347 575.76 205.963 576.123C211.324 576.868 214.545 577.146 220.339 577.368C234.253 577.9 248.479 576.167 262.27 572.261C265.348 571.389 272.281 569.062 273.703 568.423C273.96 568.307 274.625 568.037 275.181 567.822C276.309 567.386 278.278 566.578 278.991 566.258C280.751 565.469 285.397 563.302 285.524 563.21C285.61 563.149 286.625 562.609 287.78 562.012C289.999 560.863 293.324 558.989 295.458 557.685C297.261 556.584 300.474 554.477 302.09 553.337C302.646 552.945 303.276 552.506 303.49 552.362C304.619 551.603 310.155 547.354 311.578 546.155C317.701 540.997 323.075 535.682 327.913 530.001C330.234 527.275 331.182 526.131 331.721 525.401C331.892 525.17 332.657 524.15 333.42 523.136C335.313 520.619 335.574 520.268 335.843 519.871C338.174 516.432 340.064 513.56 340.214 513.231C340.318 513.002 340.454 512.815 340.516 512.815C340.578 512.815 340.669 512.692 340.718 512.542C340.767 512.393 340.968 512.012 341.164 511.698C342.571 509.437 345.562 503.958 346.88 501.227C347.982 498.942 349.375 495.902 349.375 495.782C349.375 495.744 349.546 495.344 349.755 494.892C349.964 494.441 350.317 493.617 350.54 493.06C350.762 492.504 351.009 491.909 351.088 491.738C351.608 490.614 354.117 483.35 354.904 480.695C356.702 474.625 358.3 467.443 359.005 462.263C359.185 460.937 359.4 459.502 359.483 459.074C359.859 457.132 360.361 450.027 360.512 444.53C360.648 439.564 360.241 430.922 359.648 426.176C359.365 423.916 358.712 419.401 358.558 418.632C358.471 418.205 358.222 416.91 358.003 415.755C356.628 408.501 353.477 397.759 351.091 392.19C350.944 391.847 350.733 391.323 350.62 391.023C350.4 390.437 349.287 387.798 348.619 386.28C347.792 384.4 344.387 377.669 343.307 375.78C341.618 372.824 340.985 371.755 340.249 370.613C339.879 370.038 339.576 369.496 339.576 369.407C339.576 369.319 339.519 369.247 339.449 369.247C339.379 369.247 339.174 368.984 338.993 368.664C338.811 368.343 338.165 367.345 337.555 366.447C336.946 365.549 336.189 364.429 335.873 363.958C335.557 363.488 335.206 363.005 335.093 362.887C334.981 362.768 334.772 362.488 334.63 362.264C334.488 362.041 333.919 361.263 333.366 360.536C332.489 359.383 331.875 358.6 329.963 356.199C329.732 355.91 329.03 355.07 328.402 354.333C321.893 346.692 314.074 339.315 306.509 333.679C304.767 332.381 303.335 331.35 301.838 330.316C299.71 328.846 299.073 328.166 298.735 327.002C298.151 324.994 299.026 322.96 300.918 321.926C301.414 321.654 301.805 321.581 302.79 321.578C303.866 321.575 304.134 321.632 304.778 322.001C305.664 322.509 306.338 322.933 306.445 323.05C306.488 323.097 307.363 323.722 308.389 324.44C309.416 325.157 310.466 325.914 310.723 326.121C310.979 326.328 311.714 326.886 312.356 327.36C312.997 327.834 313.707 328.37 313.932 328.552C314.158 328.734 314.607 329.093 314.931 329.35C324.913 337.267 334.955 347.845 342.168 358.041C342.867 359.029 343.59 360.046 343.776 360.303C344.146 360.813 345.937 363.517 346.187 363.943C346.272 364.089 346.651 364.695 347.028 365.289C349.019 368.424 349.958 370.04 352.037 373.913C353.888 377.362 354.772 379.153 356.527 383.013C358.689 387.767 361.1 394.16 362.657 399.267L363.511 402.067C364.214 404.374 366.017 411.915 366.411 414.199C366.551 415.012 366.728 415.887 366.805 416.144C366.961 416.664 367.78 422.156 368.119 424.95C368.324 426.639 368.575 429.768 368.967 435.509C369.173 438.53 369.179 445.631 368.977 448.414C368.893 449.572 368.712 452.059 368.576 453.941C367.796 464.667 365.672 475.367 362.138 486.372C361.328 488.894 360.733 490.636 360.573 490.961C360.488 491.132 360.248 491.762 360.04 492.36C359.468 494.006 358.541 496.385 358.402 496.56C358.335 496.646 358.227 496.891 358.164 497.105C357.945 497.838 355.938 502.303 354.503 505.249C353.137 508.054 349.972 513.888 348.707 515.935C348.518 516.239 348.054 517.008 347.675 517.644C347.295 518.28 346.928 518.87 346.857 518.957C346.787 519.043 346.442 519.569 346.09 520.125C345.738 520.681 345.237 521.451 344.977 521.836L343.609 523.858C341.995 526.245 338.873 530.386 336.808 532.88C336.551 533.19 336.241 533.564 335.963 533.901C335.741 534.169 335.54 534.412 335.401 534.58C333.304 537.121 330.205 540.507 327.288 543.446C325.397 545.351 324.557 546.156 321.688 548.819C319.328 551.009 313.331 555.948 311.106 557.534C310.005 558.319 307.752 559.95 307.612 560.064C307.453 560.194 302.299 563.603 301.312 564.231C301.013 564.422 300.453 564.773 300.068 565.012C299.41 565.42 299.055 565.627 296.607 567.038C296.072 567.346 295.11 567.881 294.468 568.228C293.827 568.574 292.917 569.067 292.446 569.323C288.625 571.401 281.878 574.501 277.669 576.114C276.942 576.393 276.006 576.759 275.589 576.928C275.172 577.097 274.402 577.37 273.878 577.535C273.354 577.699 272.785 577.902 272.614 577.985C272.143 578.214 268.385 579.421 265.848 580.159C264.607 580.52 263.138 580.949 262.581 581.113C258.272 582.381 248.185 584.326 242.516 584.983C223.282 587.211 204.566 585.804 186.131 580.744C183.659 580.065 178.026 578.282 177.421 577.986C177.25 577.902 176.681 577.699 176.157 577.535C175.633 577.37 174.863 577.097 174.446 576.928C174.029 576.759 173.093 576.394 172.366 576.116C167.931 574.421 161.746 571.561 157.278 569.139C156.636 568.791 155.936 568.418 155.722 568.309C155.346 568.118 153.273 566.949 151.523 565.939C150.682 565.454 149.722 564.869 148.801 564.278L147.064 563.168C145.821 562.373 142.567 560.173 141.722 559.556C141.488 559.385 140.859 558.93 140.323 558.545C138.234 557.042 138.214 557.027 135.379 554.771C130.721 551.065 127.045 547.767 122.748 543.441C119.704 540.376 119.122 539.748 115.537 535.667C115.268 535.36 114.802 534.806 114.503 534.436C114.204 534.066 113.574 533.304 113.103 532.743C112.357 531.855 110.956 530.061 109.381 527.98C109.122 527.638 108.559 526.868 108.131 526.269C107.702 525.67 107.289 525.105 107.213 525.013C107.08 524.852 106.664 524.236 105.761 522.864C105.53 522.513 105.236 522.085 105.108 521.914C104.21 520.715 100.632 514.889 99.3338 512.512C98.9807 511.866 98.4426 510.882 98.1379 510.326C96.3106 506.99 93.8578 501.89 92.3403 498.271C92.0174 497.501 91.6313 496.591 91.4822 496.249C91.3332 495.907 91.0603 495.207 90.8762 494.694C90.6918 494.18 90.4741 493.62 90.3921 493.449C89.9434 492.512 87.4053 485.003 86.659 482.406C84.7606 475.797 83.4954 469.989 82.6102 463.818C82.3587 462.064 82.0848 460.244 82.0014 459.774C81.537 457.151 80.9053 446.934 80.9054 442.042C80.9054 437.008 81.5121 427.107 81.9964 424.232C82.0829 423.719 82.3592 421.864 82.6104 420.11C83.4666 414.129 84.8488 407.77 86.6335 401.6C87.8266 397.476 90.5528 389.715 91.6466 387.331C91.8129 386.968 91.949 386.627 91.949 386.572C91.949 386.479 92.1815 385.942 93.6279 382.701C95.7883 377.861 99.3561 371.117 101.98 366.914C102.167 366.614 102.623 365.879 102.993 365.28C103.363 364.682 103.777 364.023 103.913 363.818C104.626 362.737 106.308 360.24 106.611 359.813C106.803 359.543 107.446 358.633 108.041 357.791C110.809 353.874 115.265 348.413 118.994 344.369C124.201 338.723 131.525 331.987 136.513 328.258C137.197 327.746 137.792 327.288 137.835 327.24C137.918 327.145 140.42 325.294 141.568 324.477C142.518 323.8 148.822 319.611 149.501 319.206C149.993 318.911 153.324 316.97 155.617 315.642C156.115 315.353 156.555 315.117 156.596 315.117C156.636 315.117 157.419 314.71 158.335 314.212C160.261 313.166 167.202 309.829 167.452 309.829C167.498 309.829 167.975 309.629 168.512 309.386C169.049 309.142 169.838 308.815 170.266 308.659C170.693 308.503 171.113 308.325 171.199 308.265C171.285 308.204 171.88 307.96 172.521 307.724C173.163 307.488 174.423 307.02 175.321 306.685ZM184.223 332.807C184.752 332.136 185.861 331.33 186.668 331.031C187.016 330.902 187.767 330.841 188.698 330.866C189.898 330.898 190.32 330.976 190.946 331.284C192.491 332.044 193.649 333.476 193.993 335.05C194.15 335.772 194.138 336.565 193.923 339.483C193.78 341.438 193.596 343.702 193.515 344.515C193.435 345.328 193.326 348.128 193.274 350.737C193.004 364.328 194.786 379.487 198.155 392.267C198.948 395.276 200.565 400.778 200.829 401.367C200.906 401.538 201.179 402.308 201.435 403.078C201.692 403.848 202.154 405.143 202.463 405.955C202.772 406.768 203.153 407.783 203.309 408.211C203.656 409.161 204.619 411.495 205.124 412.61C205.329 413.061 205.497 413.459 205.497 413.495C205.497 413.53 205.777 414.154 206.119 414.881C206.461 415.608 206.741 416.235 206.741 416.275C206.741 416.701 211.771 426.663 214.489 431.62C216.234 434.803 216.327 434.969 217.556 437.142C221.591 444.271 223.868 448.466 225.916 452.541C227.185 455.066 228.828 458.525 228.828 458.671C228.828 458.741 228.965 458.973 229.132 459.185C229.3 459.398 229.581 460.11 229.757 460.767C229.933 461.425 230.147 462.083 230.232 462.23C230.629 462.915 232.062 467.436 232.904 470.662C233.356 472.395 234.298 476.699 234.604 478.436C234.816 479.639 234.714 490.925 234.488 491.209C234.393 491.329 234.189 491.952 234.035 492.594C233.882 493.235 233.487 494.516 233.159 495.439C232.83 496.363 232.561 497.215 232.561 497.334C232.561 497.794 230.213 502.341 228.892 504.439C228.434 505.167 227.318 506.696 227.001 507.032C226.894 507.145 226.806 507.328 226.806 507.439C226.806 507.978 221.456 513.694 218.718 516.079C217.991 516.713 216.915 517.68 216.326 518.227C215.738 518.775 215.073 519.304 214.849 519.403C214.624 519.501 213.425 520.251 212.185 521.069C211.053 521.816 210.431 522.227 209.799 522.621C208.963 523.142 208.109 523.634 206.037 524.831C202.1 527.105 191.741 532.162 190.324 532.502C190.071 532.562 189.794 532.666 189.709 532.731C189.338 533.017 185.506 533.819 183.804 533.968C178.82 534.405 173.359 533.004 169.152 530.21C165.348 527.685 159.231 522.309 155.109 517.871C151.193 513.654 146.956 508.112 144.09 503.456C141.883 499.871 139.927 496.33 138.777 493.838C138.323 492.854 137.75 491.615 137.504 491.084C137.258 490.553 137.057 490.076 137.057 490.025C137.057 489.974 136.918 489.628 136.748 489.255C136.353 488.388 135.835 486.997 134.89 484.272C133.363 479.864 132.989 478.579 132.068 474.551C131.823 473.481 131.514 472.132 131.38 471.553C131.246 470.974 130.96 469.298 130.744 467.83C130.527 466.361 130.326 465.12 130.296 465.071C130.266 465.023 130.113 463.653 129.955 462.028C129.726 459.671 129.67 457.769 129.677 452.619C129.686 446.293 129.86 443.177 130.376 440.097C130.462 439.584 130.706 438.079 130.917 436.753C131.332 434.157 131.473 433.488 132.41 429.676C133.226 426.356 135.266 419.819 135.663 419.254C135.723 419.169 135.86 418.819 135.968 418.477C136.156 417.881 137.084 415.636 137.961 413.655C138.61 412.188 141.703 406.081 141.934 405.81C142.049 405.676 142.351 405.182 142.605 404.711C142.86 404.241 143.757 402.666 144.599 401.211C145.441 399.757 147.039 396.992 148.15 395.067C149.26 393.142 150.435 391.113 150.759 390.556C151.084 390 151.564 389.16 151.826 388.69C152.088 388.219 152.369 387.729 152.451 387.601C152.806 387.043 153.856 385.231 153.856 385.177C153.856 385.144 154.136 384.66 154.478 384.101C154.82 383.542 155.1 383.044 155.1 382.995C155.1 382.945 155.231 382.719 155.392 382.492C155.552 382.265 155.874 381.729 156.108 381.302C156.341 380.874 156.801 380.069 157.129 379.513C157.457 378.957 157.914 378.152 158.144 377.724C158.374 377.296 158.606 376.911 158.659 376.869C158.712 376.826 158.925 376.476 159.132 376.091C159.785 374.877 162.437 370.275 162.722 369.861C162.873 369.643 163.188 369.083 163.424 368.617C163.659 368.151 163.903 367.734 163.966 367.691C164.03 367.649 164.301 367.194 164.57 366.68C164.838 366.167 165.124 365.642 165.206 365.514C165.514 365.028 166.61 363.147 166.61 363.103C166.61 363.065 167.28 361.909 168.006 360.692C168.083 360.564 168.667 359.549 169.305 358.436C169.943 357.324 171.114 355.294 171.907 353.926C172.7 352.557 173.832 350.597 174.423 349.57C175.013 348.544 175.559 347.599 175.636 347.471C176.292 346.373 177.032 345.098 177.032 345.066C177.032 345.044 177.395 344.404 177.838 343.643C178.282 342.882 178.883 341.84 179.173 341.327C179.464 340.813 179.97 339.938 180.298 339.382C180.626 338.826 181.132 337.951 181.423 337.438C182.842 334.93 183.804 333.34 184.223 332.807Z" fill="url(#paint0_linear_28654_67)"/>
<path d="M159.844 207.233L66.4134 49.3171C65.1395 47.1654 67.4772 44.8271 70.905 44.8271H193.321C196.959 44.8271 200.23 46.3297 201.582 48.6147L291.451 207.233" fill="url(#paint1_linear_28654_67)"/>
<path d="M159.844 207.233V215.035C157.087 215.035 154.534 213.579 153.13 211.206L159.844 207.233ZM66.4134 49.3171L73.1269 45.3422L73.1281 45.3443L66.4134 49.3171ZM201.582 48.6147L208.296 44.6402L208.334 44.7041L208.37 44.7687L201.582 48.6147ZM291.451 207.233L298.239 203.387C299.607 205.802 299.589 208.763 298.191 211.161C296.794 213.56 294.227 215.035 291.451 215.035V207.233ZM153.13 211.206L59.6987 53.2899L73.1281 45.3443L166.559 203.26L153.13 211.206ZM59.6999 53.292C58.4812 51.2336 57.9744 48.7949 58.4163 46.3306C58.8415 43.9596 60.046 42.0815 61.3797 40.748C63.98 38.148 67.5609 37.0251 70.905 37.0251V52.629C70.9268 52.629 71.0612 52.6264 71.2925 52.5405C71.5056 52.4615 71.9344 52.2604 72.4125 51.7824C72.8925 51.3025 73.5371 50.4124 73.7752 49.085C74.03 47.6643 73.7086 46.3248 73.1269 45.3422L59.6999 53.292ZM70.905 37.0251H193.321V52.629H70.905V37.0251ZM193.321 37.0251C198.583 37.0251 205.044 39.147 208.296 44.6402L194.869 52.5892C195.041 52.8798 195.197 53.0188 195.233 53.0481C195.268 53.0774 195.22 53.0308 195.056 52.9553C194.708 52.7959 194.101 52.629 193.321 52.629V37.0251ZM208.37 44.7687L298.239 203.387L284.663 211.079L194.794 52.4607L208.37 44.7687ZM159.844 199.431H291.451V215.035H159.844V199.431Z" fill="url(#paint2_linear_28654_67)"/>
<path fill-rule="evenodd" clip-rule="evenodd" d="M182.718 193.641L175.5 207.233H222.204L182.718 193.641ZM310.912 191.286L394.908 49.3171C396.182 47.1654 393.844 44.8271 390.416 44.8271H268C264.362 44.8271 261.092 46.3297 259.739 48.6147L245.66 75.1251L310.912 191.286Z" fill="url(#paint3_linear_28654_67)"/>
<path d="M182.718 193.641L185.257 186.264L178.954 184.095L175.828 189.982L182.718 193.641ZM175.5 207.233L168.609 203.573L162.523 215.035H175.5V207.233ZM222.204 207.233V215.035H268.843L224.744 199.856L222.204 207.233ZM310.912 191.286L304.11 195.107L310.737 206.904L317.627 195.259L310.912 191.286ZM394.908 49.3171L388.194 45.3422L388.193 45.3443L394.908 49.3171ZM259.739 48.6147L253.025 44.6402L252.933 44.7957L252.848 44.9553L259.739 48.6147ZM245.66 75.1251L238.769 71.4657L236.77 75.2301L238.858 78.9462L245.66 75.1251ZM222.204 207.233V215.035H268.843L224.744 199.856L222.204 207.233ZM175.5 199.431C171.191 199.431 167.698 202.924 167.698 207.233C167.698 211.542 171.191 215.035 175.5 215.035V199.431ZM185.257 186.264C181.183 184.862 176.743 187.028 175.341 191.102C173.939 195.177 176.105 199.616 180.179 201.019L185.257 186.264ZM175.828 189.982L168.609 203.573L182.391 210.892L189.609 197.301L175.828 189.982ZM175.5 215.035H222.204V199.431H175.5V215.035ZM224.744 199.856L185.257 186.264L180.179 201.019L219.665 214.61L224.744 199.856ZM317.627 195.259L401.623 53.2899L388.193 45.3443L304.197 187.313L317.627 195.259ZM401.621 53.292C402.84 51.2336 403.347 48.7949 402.905 46.3306C402.48 43.9596 401.275 42.0815 399.942 40.748C397.341 38.148 393.76 37.0251 390.416 37.0251V52.629C390.395 52.629 390.26 52.6264 390.029 52.5405C389.816 52.4615 389.387 52.2604 388.909 51.7824C388.429 51.3025 387.784 50.4124 387.546 49.085C387.291 47.6643 387.613 46.3248 388.194 45.3422L401.621 53.292ZM390.416 37.0251H268V52.629H390.416V37.0251ZM268 37.0251C262.739 37.0251 256.277 39.147 253.025 44.6402L266.453 52.5892C266.281 52.8798 266.124 53.0188 266.089 53.0481C266.054 53.0774 266.101 53.0308 266.266 52.9553C266.613 52.7959 267.22 52.629 268 52.629V37.0251ZM252.848 44.9553L238.769 71.4657L252.55 78.7845L266.629 52.2741L252.848 44.9553ZM238.858 78.9462L304.11 195.107L317.714 187.465L252.462 71.3041L238.858 78.9462ZM222.204 199.431H175.5V215.035H222.204V199.431ZM180.179 201.019L219.665 214.61L224.744 199.856L185.257 186.264L180.179 201.019Z" fill="url(#paint4_linear_28654_67)"/>
<path fill-rule="evenodd" clip-rule="evenodd" d="M139.426 201.481C135.688 203.383 133.126 207.267 133.126 211.749C133.126 218.107 138.281 223.262 144.639 223.262H307.169C313.527 223.262 318.682 218.107 318.682 211.749C318.682 210.325 318.423 208.961 317.95 207.702L325.599 194.773C329.713 199.238 332.226 205.2 332.226 211.749C332.226 225.588 321.008 236.806 307.169 236.806H144.639C130.8 236.806 119.582 225.588 119.582 211.749C119.582 202.355 124.752 194.169 132.401 189.879L139.426 201.481Z" fill="url(#paint5_linear_28654_67)"/>
<defs>
<linearGradient id="paint0_linear_28654_67" x1="225.129" y1="234.074" x2="225.129" y2="629.196" gradientUnits="userSpaceOnUse">
<stop stop-color="#FF6B00"/>
<stop offset="1" stop-color="#FBB707"/>
</linearGradient>
<linearGradient id="paint1_linear_28654_67" x1="178.756" y1="44.8271" x2="178.756" y2="207.233" gradientUnits="userSpaceOnUse">
<stop stop-color="#FF6B00"/>
<stop offset="1" stop-color="#FBB707"/>
</linearGradient>
<linearGradient id="paint2_linear_28654_67" x1="178.756" y1="44.8271" x2="178.756" y2="207.233" gradientUnits="userSpaceOnUse">
<stop stop-color="#FF6B00"/>
<stop offset="1" stop-color="#FBB707"/>
</linearGradient>
<linearGradient id="paint3_linear_28654_67" x1="285.38" y1="44.8271" x2="285.38" y2="207.233" gradientUnits="userSpaceOnUse">
<stop stop-color="#FF6B00"/>
<stop offset="1" stop-color="#FBB707"/>
</linearGradient>
<linearGradient id="paint4_linear_28654_67" x1="285.38" y1="44.8271" x2="285.38" y2="207.233" gradientUnits="userSpaceOnUse">
<stop stop-color="#FF6B00"/>
<stop offset="1" stop-color="#FBB707"/>
</linearGradient>
<linearGradient id="paint5_linear_28654_67" x1="225.904" y1="189.902" x2="225.904" y2="236.806" gradientUnits="userSpaceOnUse">
<stop stop-color="#FF6B00"/>
<stop offset="1" stop-color="#FBB707"/>
</linearGradient>
</defs>
</svg>
